<svg width="44" height="44" viewBox="0 0 44 44" fill="none" xmlns="http://www.w3.org/2000/svg">
<path fill-rule="evenodd" clip-rule="evenodd" d="M11.9123 22C11.9123 21.3096 12.4719 20.75 13.1623 20.75L20.7511 20.75L20.7511 13.1612C20.7511 12.4708 21.3108 11.9112 22.0011 11.9112C22.6915 11.9112 23.2511 12.4708 23.2511 13.1612V20.75H30.84C31.5303 20.75 32.09 21.3096 32.09 22C32.09 22.6904 31.5303 23.25 30.84 23.25H23.2511V30.8388C23.2511 31.5292 22.6915 32.0888 22.0011 32.0888C21.3108 32.0888 20.7511 31.5292 20.7511 30.8388L20.7511 23.25L13.1623 23.25C12.4719 23.25 11.9123 22.6904 11.9123 22Z" fill="#384786" stroke="#384786" stroke-width="2" stroke-linecap="round" stroke-linejoin="round"/>
</svg>
